<svg width="60" height="60" viewBox="0 0 60 60" fill="none" xmlns="http://www.w3.org/2000/svg">
<path d="M20.6893 16.7096L19.614 17.0773C17.9545 17.6452 16.7164 19.0152 16.3827 20.6536L16.0179 22.4578C15.8359 23.3514 16.0837 24.2667 16.6983 24.9685C17.3131 25.6711 18.2196 26.0739 19.185 26.0739H28.5056C29.4635 26.0739 30.3655 25.6763 30.9801 24.983C31.5943 24.2904 31.8499 23.3834 31.6813 22.4948L31.341 20.7001C31.0257 19.0359 29.7835 17.6437 28.0989 17.0668L26.9589 16.6769V15.0914C26.9589 15.0468 26.9543 15.0035 26.9475 14.9607C27.7792 14.1617 28.2555 13.0722 28.2555 11.9575V9.59516C28.2555 7.28914 26.2674 5.41309 23.8236 5.41309C21.3799 5.41309 19.3914 7.28914 19.3914 9.59516V12.0311C19.3914 13.177 19.8921 14.2231 20.6971 14.9829C20.6924 15.0185 20.6893 15.0545 20.6893 15.0912V16.7096ZM29.5071 21.0095L29.8474 22.8044C29.9187 23.1795 29.8107 23.5624 29.5513 23.8549C29.2915 24.1479 28.9103 24.316 28.5054 24.316H19.1848C18.7768 24.316 18.3938 24.1459 18.1341 23.849C17.8748 23.5528 17.7701 23.1666 17.8471 22.7885L18.2119 20.9843C18.4222 19.9516 19.2028 19.0878 20.2485 18.73L20.9528 18.4892C20.9705 18.5063 20.9882 18.5236 21.0073 18.5394C21.8099 19.2016 22.8167 19.5328 23.824 19.5327C24.8301 19.5327 25.8366 19.2022 26.6393 18.5412C26.6682 18.5175 26.6948 18.4918 26.7201 18.4651L27.4631 18.7193C28.5254 19.0828 29.3084 19.9603 29.5071 21.0095ZM21.2541 9.59516C21.2541 8.25852 22.4066 7.1709 23.8233 7.1709C25.0189 7.1709 26.0235 7.94668 26.3087 8.99199C26.189 9.04719 26.0662 9.09934 25.9404 9.1468C24.7952 9.57945 23.8702 9.52203 23.6058 9.34719C23.1846 9.06852 22.6039 9.16461 22.3085 9.56211C22.0132 9.95961 22.1152 10.5076 22.5363 10.7864C22.9911 11.0874 23.6086 11.2379 24.3132 11.2379C24.9533 11.2379 25.6655 11.1124 26.3926 10.8641V11.9573C26.3926 12.6291 26.0981 13.287 25.5846 13.7622C25.347 13.9823 25.0746 14.1528 24.7822 14.2705C24.7617 14.2779 24.7416 14.2858 24.7218 14.2945C24.4214 14.4066 24.1006 14.463 23.7726 14.4549C22.3838 14.4297 21.2541 13.3423 21.2541 12.031V9.59516ZM23.7368 16.2126C23.7653 16.2131 23.7935 16.2133 23.8219 16.2133C24.2589 16.2133 24.6871 16.1513 25.0961 16.0324V17.4385C24.3199 17.8902 23.3275 17.8899 22.5523 17.4378V16.035C22.929 16.1427 23.326 16.2051 23.7368 16.2126Z" fill="black"/>
<path d="M9.17061 41.1211H38.1754C38.6899 41.1211 39.1068 40.7277 39.1068 40.2422C39.1068 39.7567 38.6899 39.3633 38.1754 39.3633H9.17061C8.65613 39.3633 8.23926 39.7567 8.23926 40.2422C8.23926 40.7277 8.65613 41.1211 9.17061 41.1211Z" fill="black"/>
<path d="M9.17061 45.8604H38.1754C38.6899 45.8604 39.1068 45.467 39.1068 44.9814C39.1068 44.4959 38.6899 44.1025 38.1754 44.1025H9.17061C8.65613 44.1025 8.23926 44.4959 8.23926 44.9814C8.23926 45.467 8.65613 45.8604 9.17061 45.8604Z" fill="black"/>
<path d="M9.17061 50.5996H38.1754C38.6899 50.5996 39.1068 50.2062 39.1068 49.7207C39.1068 49.2352 38.6899 48.8418 38.1754 48.8418H9.17061C8.65613 48.8418 8.23926 49.2352 8.23926 49.7207C8.23926 50.2062 8.65613 50.5996 9.17061 50.5996Z" fill="black"/>
<path d="M9.17061 55.3389H38.1754C38.6899 55.3389 39.1068 54.9455 39.1068 54.46C39.1068 53.9745 38.6899 53.5811 38.1754 53.5811H9.17061C8.65613 53.5811 8.23926 53.9745 8.23926 54.46C8.23926 54.9455 8.65613 55.3389 9.17061 55.3389Z" fill="black"/>
<path d="M8.23926 30.7646C8.23926 31.2502 8.65613 31.6435 9.17061 31.6435H38.1754C38.6899 31.6435 39.1068 31.2502 39.1068 30.7646C39.1068 30.2791 38.6899 29.8857 38.1754 29.8857H9.17061C8.65613 29.8857 8.23926 30.2793 8.23926 30.7646Z" fill="black"/>
<path d="M9.17061 36.3828H38.1754C38.6899 36.3828 39.1068 35.9894 39.1068 35.5039C39.1068 35.0184 38.6899 34.625 38.1754 34.625H9.17061C8.65613 34.625 8.23926 35.0184 8.23926 35.5039C8.23926 35.9894 8.65613 36.3828 9.17061 36.3828Z" fill="black"/>
<path d="M5.73122 41.1247C6.24756 41.1247 6.66617 40.7298 6.66617 40.2425C6.66617 39.7554 6.24756 39.3604 5.73122 39.3604C5.21488 39.3604 4.79639 39.7553 4.79639 40.2425C4.79639 40.7298 5.215 41.1247 5.73122 41.1247Z" fill="black"/>
<path d="M5.73122 31.6472C6.24756 31.6472 6.66617 31.2523 6.66617 30.765C6.66617 30.2777 6.24756 29.8828 5.73122 29.8828C5.21488 29.8828 4.79639 30.2777 4.79639 30.765C4.79639 31.2523 5.215 31.6472 5.73122 31.6472Z" fill="black"/>
<path d="M5.73122 36.3855C6.24756 36.3855 6.66617 35.9905 6.66617 35.5033C6.66617 35.016 6.24756 34.6211 5.73122 34.6211C5.21488 34.6211 4.79639 35.016 4.79639 35.5033C4.79639 35.9905 5.215 36.3855 5.73122 36.3855Z" fill="black"/>
<path d="M5.73122 45.864C6.24756 45.864 6.66617 45.4691 6.66617 44.9818C6.66617 44.4945 6.24756 44.0996 5.73122 44.0996C5.21488 44.0996 4.79639 44.4945 4.79639 44.9818C4.79639 45.4691 5.215 45.864 5.73122 45.864Z" fill="black"/>
<path d="M5.73122 50.6032C6.24756 50.6032 6.66617 50.2083 6.66617 49.7211C6.66617 49.2338 6.24756 48.8389 5.73122 48.8389C5.21488 48.8389 4.79639 49.2338 4.79639 49.7211C4.79639 50.2082 5.215 50.6032 5.73122 50.6032Z" fill="black"/>
<path d="M5.73122 55.3425C6.24756 55.3425 6.66617 54.9476 6.66617 54.4603C6.66617 53.9732 6.24756 53.5781 5.73122 53.5781C5.21488 53.5781 4.79639 53.9731 4.79639 54.4603C4.79639 54.9475 5.215 55.3425 5.73122 55.3425Z" fill="black"/>
<path d="M58.5155 13.8423C58.1398 13.3935 57.7846 12.9694 57.6129 12.5787C57.4276 12.1569 57.3546 11.5997 57.2773 11.0095C57.1419 9.9757 56.9884 8.80395 56.1218 7.98633C55.2553 7.16871 54.0135 7.02387 52.918 6.89602C52.2925 6.82312 51.7018 6.75422 51.2548 6.57938C50.8407 6.4173 50.3914 6.08238 49.9157 5.72766C49.2611 5.23957 48.5412 4.70367 47.6901 4.46051V4.19461C47.6902 1.8818 45.696 0 43.2448 0H4.44541C1.99421 0 0 1.8818 0 4.19473V7.58719C0 8.0727 0.416874 8.46609 0.931353 8.46609C1.44583 8.46609 1.86271 8.0727 1.86271 7.58719V4.19473C1.86271 2.85094 3.02131 1.75781 4.44541 1.75781H43.2448C44.6689 1.75781 45.8275 2.85094 45.8275 4.19473V4.46074C44.9766 4.70402 44.257 5.23969 43.6025 5.72777C43.1267 6.08238 42.6774 6.41742 42.2634 6.57949C41.8165 6.75422 41.2258 6.82312 40.6003 6.89613C39.5048 7.02387 38.2631 7.16871 37.3964 7.98633C36.5298 8.80406 36.3763 9.97582 36.2408 11.0096C36.1636 11.5997 36.0905 12.157 35.9053 12.5788C35.7335 12.9695 35.3785 13.3936 35.0026 13.8424C34.3067 14.6734 33.5182 15.6152 33.5182 16.821C33.5182 18.0267 34.3068 18.9686 35.0026 19.7995C35.3784 20.2484 35.7335 20.6725 35.9053 21.0632C36.0905 21.4849 36.1636 22.0421 36.2408 22.6324C36.3763 23.6661 36.5298 24.8379 37.3963 25.6555C38.2628 26.4732 39.5046 26.618 40.6002 26.7458C40.9268 26.7839 41.2433 26.8213 41.5355 26.8729V40.158C41.5355 40.6787 41.8435 41.1437 42.3393 41.3715C42.835 41.5997 43.4128 41.5418 43.8476 41.2206L45.8274 39.7577V55.8054C45.8274 57.1492 44.6688 58.2423 43.2447 58.2423H4.44541C3.02131 58.2423 1.86271 57.1492 1.86271 55.8054V11.4575C1.86271 10.972 1.44583 10.5786 0.931353 10.5786C0.416874 10.5786 0 10.972 0 11.4575V55.8053C0 58.1182 1.99421 60 4.44541 60H43.2448C45.696 60 47.6902 58.1182 47.6902 55.8053V39.7576L49.67 41.2204C49.9285 41.4114 50.2377 41.5093 50.5504 41.5093C50.7635 41.5093 50.978 41.4637 51.1792 41.3713C51.6752 41.1435 51.9834 40.6785 51.9834 40.1579V30.3497C51.9834 29.8642 51.5665 29.4708 51.0521 29.4708C50.5376 29.4708 50.1207 29.8642 50.1207 30.3497V39.321L47.6449 37.4918C47.3947 37.3049 47.08 37.2019 46.7588 37.2019C46.4375 37.2019 46.1228 37.3049 45.8766 37.4888L43.3981 39.32V27.7624C43.4656 27.8123 43.5335 27.8629 43.6023 27.9141C44.483 28.5708 45.4812 29.3148 46.759 29.3148C48.0367 29.3148 49.0349 28.5707 49.9156 27.9142C50.3913 27.5596 50.8407 27.2244 51.2547 27.0623C51.7016 26.8876 52.2924 26.8187 52.9179 26.7457C54.0134 26.618 55.2551 26.4731 56.1218 25.6555C56.9882 24.8378 57.1417 23.666 57.2772 22.6323C57.3546 22.0421 57.4276 21.4848 57.6129 21.063C57.7846 20.6723 58.1396 20.2482 58.5155 19.7994C59.2114 18.9684 60 18.0266 60 16.8209C60 15.6151 59.2113 14.6733 58.5155 13.8423ZM57.0541 18.7096C56.616 19.2328 56.1629 19.7738 55.8924 20.3897C55.6101 21.0319 55.5178 21.7358 55.4287 22.4166C55.3205 23.2423 55.2184 24.0221 54.8049 24.4124C54.3913 24.8026 53.5647 24.8989 52.6896 25.001C51.9681 25.0852 51.2223 25.1721 50.5415 25.4385C49.8889 25.6938 49.3156 26.1212 48.7612 26.5346C48.056 27.0602 47.39 27.5569 46.7593 27.5569C46.1286 27.5569 45.4626 27.0604 44.7573 26.5346C44.2029 26.1213 43.6297 25.6938 42.977 25.4385C42.932 25.4209 42.776 25.3649 42.7424 25.355C42.1268 25.153 41.4683 25.0755 40.8288 25.001C39.9537 24.8989 39.1271 24.8025 38.7135 24.4123C38.3001 24.0221 38.1979 23.2423 38.0897 22.4167C38.0006 21.7358 37.9084 21.0321 37.6262 20.3897C37.3554 19.7738 36.9026 19.2328 36.4645 18.7096C35.9075 18.0442 35.3812 17.4158 35.3812 16.8209C35.3812 16.2259 35.9074 15.5975 36.4645 14.9321C36.9026 14.4089 37.3556 13.868 37.6262 13.252C37.9084 12.6098 38.0007 11.9059 38.0897 11.2252C38.1979 10.3995 38.3001 9.61957 38.7136 9.22934C39.1273 8.8391 39.9538 8.74277 40.8289 8.6407C41.5504 8.55656 42.2962 8.46961 42.977 8.20324C43.6297 7.94789 44.2029 7.52051 44.7573 7.10707C45.4611 6.58242 46.1259 6.08695 46.7555 6.08508C46.7567 6.08508 46.7579 6.0852 46.759 6.0852C46.7603 6.0852 46.7615 6.08508 46.7627 6.08508C47.3925 6.08684 48.0573 6.58242 48.7612 7.10707C49.3156 7.52039 49.8889 7.94789 50.5415 8.20324C51.2222 8.46961 51.9683 8.55668 52.6897 8.6407C53.5648 8.74277 54.3914 8.83922 54.8049 9.22945C55.2184 9.61969 55.3206 10.3995 55.4288 11.2252C55.518 11.9059 55.6101 12.6097 55.8924 13.252C56.1631 13.868 56.616 14.4089 57.0541 14.9321C57.611 15.5975 58.1373 16.2259 58.1373 16.8209C58.1373 17.4158 57.6111 18.0443 57.0541 18.7096Z" fill="black"/>
<path d="M52.7386 14.0279L49.5693 13.1817L47.7367 10.5989C47.5178 10.2904 47.1525 10.1064 46.7592 10.1064C46.3659 10.1064 46.0004 10.2905 45.7816 10.5989L43.9491 13.1817L40.7795 14.028C40.401 14.1291 40.1025 14.4004 39.981 14.7534C39.8596 15.1064 39.9324 15.4913 40.1755 15.7827L42.2124 18.2252L42.086 21.3303C42.0708 21.7013 42.2516 22.0531 42.5698 22.2714C42.7741 22.4115 43.0161 22.4839 43.2609 22.4839C43.3977 22.4839 43.5353 22.4613 43.6675 22.4153L46.7589 21.3421L49.8502 22.4152C50.2193 22.5437 50.6295 22.4898 50.9478 22.2717C51.2661 22.0536 51.4471 21.7019 51.432 21.3308L51.3056 18.2251L53.3426 15.7825C53.5858 15.4909 53.6584 15.1061 53.5368 14.7532C53.4157 14.4002 53.1172 14.129 52.7386 14.0279ZM49.6854 17.3259C49.5133 17.5326 49.4242 17.7911 49.4348 18.0547L49.5314 20.4317L47.1654 19.6104C46.9032 19.5193 46.6145 19.5194 46.3529 19.6102L43.9866 20.4317L44.0833 18.0539C44.0938 17.7913 44.0046 17.5327 43.8321 17.3253L42.2732 15.4559L44.6995 14.8082C44.9679 14.7364 45.2012 14.5763 45.3563 14.3577L46.7589 12.3807L48.1614 14.3574C48.3167 14.5762 48.55 14.7363 48.8188 14.8084L51.2447 15.4559L49.6854 17.3259Z" fill="black"/>
</svg>
